<svg xmlns="http://www.w3.org/2000/svg" xmlns:xlink="http://www.w3.org/1999/xlink" width="512" height="512" viewBox="0 0 512 512"><rect width="512" height="512" fill="#000000"/><g transform="translate(256.0,256.0) scale(2.35) translate(-100,-100)"><g fill="#39FF14"><polygon points="87,54 113,54 108,31 92,31" transform="rotate(0 100 100)"/><polygon points="87,54 113,54 108,31 92,31" transform="rotate(45 100 100)"/><polygon points="87,54 113,54 108,31 92,31" transform="rotate(135 100 100)"/><polygon points="87,54 113,54 108,31 92,31" transform="rotate(180 100 100)"/><polygon points="87,54 113,54 108,31 92,31" transform="rotate(225 100 100)"/><polygon points="87,54 113,54 108,31 92,31" transform="rotate(270 100 100)"/><polygon points="87,54 113,54 108,31 92,31" transform="rotate(315 100 100)"/></g><path d="M134,76 A42,42 0 1 0 134,124" fill="none" stroke="#39FF14" stroke-width="22" stroke-linecap="round"/></g><g transform="translate(256.0,256.0) scale(2.35) translate(-100,-100)"><circle cx="100" cy="100" r="19" fill="#FFFFFF" stroke="#000000" stroke-width="3.5"/></g></svg>
